<svg xmlns="http://www.w3.org/2000/svg" width="36.973" height="30.302" viewBox="0 0 36.973 30.302">
    <g id="Group_12" transform="translate(0 0)">
        <path id="Path_15" d="M924,45.268H894.241a3.246,3.246,0,1,0,0,6.452H924a3.246,3.246,0,1,0,0-6.452Z" transform="translate(-890.634 -45.268)" fill="#1888dd"/>
        <path id="Path_16" d="M924,52.482H894.241a3.246,3.246,0,1,0,0,6.452H924a3.246,3.246,0,1,0,0-6.452Z" transform="translate(-890.634 -40.557)" fill="#1888dd"/>
        <path id="Path_17" d="M924,59.7H894.241a3.246,3.246,0,1,0,0,6.452H924a3.246,3.246,0,1,0,0-6.452Z" transform="translate(-890.634 -35.846)" fill="#1888dd"/>
    </g>
</svg>
